<svg width="24" height="24" viewBox="0 0 24 24" fill="none" xmlns="http://www.w3.org/2000/svg">

<path stroke="currentColor" stroke-width="2" stroke-linecap="round" stroke-linejoin="round" d="M12 15.5A3.5 3.5 0 1 0 12 8a3.5 3.5 0 0 0 0 7.5Z"/>
<path stroke="currentColor" stroke-width="2" stroke-linecap="round" stroke-linejoin="round" d="M19.4 15a1.7 1.7 0 0 0 .34 1.88l.06.06a2 2 0 1 1-2.83 2.83l-.06-.06a1.7 1.7 0 0 0-1.88-.34 1.7 1.7 0 0 0-1.03 1.56V21a2 2 0 1 1-4 0v-.09A1.7 1.7 0 0 0 8.97 19.35a1.7 1.7 0 0 0-1.88.34l-.06.06a2 2 0 1 1-2.83-2.83l.06-.06A1.7 1.7 0 0 0 4.6 15a1.7 1.7 0 0 0-1.56-1.03H3a2 2 0 1 1 0-4h.09A1.7 1.7 0 0 0 4.65 8.94a1.7 1.7 0 0 0-.34-1.88l-.06-.06a2 2 0 1 1 2.83-2.83l.06.06A1.7 1.7 0 0 0 9 4.6a1.7 1.7 0 0 0 1-1.56V3a2 2 0 1 1 4 0v.09a1.7 1.7 0 0 0 1.03 1.56 1.7 1.7 0 0 0 1.88-.34l.06-.06a2 2 0 1 1 2.83 2.83l-.06.06A1.7 1.7 0 0 0 19.4 9c.21.62.78 1.03 1.43 1.03H21a2 2 0 1 1 0 4h-.09A1.7 1.7 0 0 0 19.4 15Z"/>

</svg>
